<?xml version="1.0" encoding="UTF-8" standalone="no"?>
<!-- Created with Inkscape (http://www.inkscape.org/) -->

<svg
   xmlns:dc="http://purl.org/dc/elements/1.1/"
   xmlns:cc="http://creativecommons.org/ns#"
   xmlns:rdf="http://www.w3.org/1999/02/22-rdf-syntax-ns#"
   xmlns:svg="http://www.w3.org/2000/svg"
   xmlns="http://www.w3.org/2000/svg"
   xmlns:sodipodi="http://sodipodi.sourceforge.net/DTD/sodipodi-0.dtd"
   xmlns:inkscape="http://www.inkscape.org/namespaces/inkscape"
   width="120mm"
   height="120mm"
   viewBox="0 0 120 120"
   version="1.1"
   id="svg3850"
   inkscape:version="0.92.5 (2060ec1f9f, 2020-04-08)"
   sodipodi:docname="filter.svg">
  <defs
     id="defs3844" />
  <sodipodi:namedview
     id="base"
     pagecolor="#ffffff"
     bordercolor="#666666"
     borderopacity="1.0"
     inkscape:pageopacity="0.0"
     inkscape:pageshadow="2"
     inkscape:zoom="0.35"
     inkscape:cx="-185.0992"
     inkscape:cy="160.13259"
     inkscape:document-units="mm"
     inkscape:current-layer="layer1"
     showgrid="false"
     fit-margin-top="0"
     fit-margin-left="0"
     fit-margin-right="0"
     fit-margin-bottom="0"
     inkscape:window-width="1866"
     inkscape:window-height="1016"
     inkscape:window-x="54"
     inkscape:window-y="27"
     inkscape:window-maximized="1"
     showborder="true"
     inkscape:pagecheckerboard="false" />
  <metadata
     id="metadata3847">
    <rdf:RDF>
      <cc:Work
         rdf:about="">
        <dc:format>image/svg+xml</dc:format>
        <dc:type
           rdf:resource="http://purl.org/dc/dcmitype/StillImage" />
        <dc:title></dc:title>
      </cc:Work>
    </rdf:RDF>
  </metadata>
  <g
     inkscape:label="Layer 1"
     inkscape:groupmode="layer"
     id="layer1"
     transform="translate(-50.486068,-74.225565)">
    <path
       inkscape:connector-curvature="0"
       id="path3795"
       d="m 84.689152,189.92424 c -4.72305,-0.9702 -9.23901,-4.42636 -11.41204,-8.7339 l -1.06544,-2.11199 -8.84251,-0.1323 -8.84251,-0.13229 -0.0719,-5.09322 -0.0719,-5.09323 8.40624,-0.004 c 4.62343,-0.002 8.65669,-0.0709 8.9628,-0.15302 0.3568,-0.0958 0.83164,-0.7318 1.32292,-1.77197 3.31864,-7.02646 11.2771,-10.83261 18.68752,-8.93735 4.95496,1.26727 8.910358,4.49237 10.975618,8.94914 0.35438,0.76476 0.86562,1.5089 1.13607,1.65364 0.31805,0.17021 11.48008,0.26316 31.60337,0.26316 h 31.11165 l -0.0719,5.09322 -0.0719,5.09323 -31.39726,0.13229 c -17.26849,0.0728 -31.45064,0.19183 -31.51588,0.26459 -0.0652,0.0728 -0.52163,0.95246 -1.01419,1.95488 -1.06067,2.15855 -3.593558,4.99756 -5.715018,6.4057 -3.3003,2.19062 -8.23667,3.14946 -12.1139,2.35302 z m 5.87121,-10.829 c 3.65882,-1.70352 4.5147,-6.47135 1.70536,-9.49998 -3.00229,-3.23663 -8.80609,-1.97429 -10.05269,2.18648 -1.56708,5.23046 3.42577,9.60494 8.34733,7.3135 z m 32.834258,-28.87008 c -4.18727,-1.01521 -8.66939,-4.63489 -10.63094,-8.58535 l -0.98531,-1.98438 -28.625858,-0.13229 -28.62586,-0.13229 v -5.15937 -5.15938 l 28.62586,-0.13229 28.625858,-0.13229 0.92799,-1.85209 c 2.82847,-5.64504 8.3765,-9.12812 14.53973,-9.12812 2.95679,0 4.58503,0.36065 7.28259,1.61307 2.95334,1.37118 6.08057,4.43064 7.54628,7.38276 l 0.98523,1.98438 11.6926,0.13229 11.69261,0.13229 v 5.15938 5.15937 l -11.68787,0.13229 -11.68787,0.13229 -1.00418,1.98438 c -2.02,3.99174 -6.52044,7.60275 -10.70465,8.58905 -2.07861,0.48997 -5.93744,0.48818 -7.96621,-0.004 z m 7.16342,-10.89213 c 0.7225,-0.44669 1.53674,-1.27362 2.0137,-2.04509 0.68137,-1.10209 0.80075,-1.55775 0.80075,-3.05646 0,-1.49872 -0.11938,-1.95438 -0.80075,-3.05647 -0.49632,-0.80278 -1.29313,-1.59959 -2.09592,-2.09591 -1.10465,-0.68296 -1.5512,-0.79944 -3.03571,-0.79183 -3.62226,0.0185 -5.94353,2.33208 -5.96409,5.94421 -0.008,1.41117 0.12097,1.94221 0.71884,2.95927 1.76736,3.0065 5.4426,3.94794 8.36318,2.14228 z M 90.507322,110.96128 c -1.86839,-0.4023 -4.11168,-1.28966 -5.51347,-2.1809 -2.79039,-1.77409 -5.36833,-4.72639 -6.41816,-7.35018 -0.2745,-0.68605 -0.68665,-1.19933 -1.08448,-1.35058 -0.3551,-0.135005 -5.65896,-0.243975 -11.87499,-0.243975 h -11.23329 l 0.0719,-5.093234 0.0719,-5.09323 11.64167,-0.13229 11.64167,-0.13229 1.19062,-2.24214 c 3.90976,-7.3627 12.27117,-10.67471 20.04829,-7.94127 3.747568,1.31716 7.086718,4.24731 9.055878,7.94666 l 1.19062,2.23675 28.575,0.13229 28.575,0.13229 0.0719,5.09323 0.0719,5.093234 h -28.29457 c -15.56197,0 -28.48357,0.0726 -28.71467,0.16124 -0.2311,0.08869 -0.91791,1.117925 -1.52624,2.287225 -2.78364,5.35051 -7.88101,8.5955 -13.839568,8.81027 -1.4552,0.0524 -3.12328,-0.007 -3.70683,-0.1331 z m 5.69121,-10.87507 c 2.01305,-1.019045 3.44292,-3.311065 3.437,-5.509359 -0.003,-1.31241 -1.05731,-3.46836 -2.14242,-4.38326 -1.38903,-1.17114 -2.51701,-1.53849 -4.36309,-1.42094 -4.61162,0.29364 -7.15495,5.40959 -4.60393,9.260914 1.66444,2.512855 5.00031,3.405315 7.67244,2.052645 z"
       style="fill:#010101;stroke-width:0.26458332" />
  </g>
</svg>
